<svg version="1.1" xmlns="http://www.w3.org/2000/svg" xmlns:xlink="http://www.w3.org/1999/xlink" width="862" height="528" viewBox="0 0 862 528"><defs/><g transform="matrix(1,0,0,1,0,0)"><g><g><g><path fill="none" stroke="#d3d3d3" paint-order="fill stroke markers" d=" M 0 0 L 1200 0" stroke-miterlimit="10" stroke-opacity="0.8" stroke-dasharray="5"/></g><g><path fill="none" stroke="#d3d3d3" paint-order="fill stroke markers" d=" M 0 0 L 0 800" stroke-miterlimit="10" stroke-opacity="0.8" stroke-dasharray="5"/></g></g><g id="_54FE436D-953F-4B7B-8528-B05289A2DEE4" bpmn2nodeid="_54FE436D-953F-4B7B-8528-B05289A2DEE4" transform="matrix(1,0,0,1,75,17)"><g><path fill="none" stroke="none"/></g><g transform="matrix(1,0,0,1,0,0)"><path fill="#ffffff" stroke="none" id="_54FE436D-953F-4B7B-8528-B05289A2DEE4?shapeType=BACKGROUND" paint-order="stroke fill markers" d=" M 5 0 L 732 0 L 732 0 A 5 5 0 0 1 737 5 L 737 456 L 737 456 A 5 5 0 0 1 732 461 L 5 461 L 5 461 A 5 5 0 0 1 0 456 L 0 5 L 0 5.000000000000001 A 5 5 0 0 1 4.999999999999999 0 Z"/></g><g transform="matrix(1,0,0,1,0,0)"><path fill="none" stroke="rgb(0,136,206)" id="_54FE436D-953F-4B7B-8528-B05289A2DEE4?shapeType=BORDER&amp;renderType=STROKE" paint-order="fill stroke markers" d=" M 5 0 L 732 0 L 732 0 A 5 5 0 0 1 737 5 L 737 456 L 737 456 A 5 5 0 0 1 732 461 L 5 461 L 5 461 A 5 5 0 0 1 0 456 L 0 5 L 0 5.000000000000001 A 5 5 0 0 1 4.999999999999999 0 Z" stroke-miterlimit="10" stroke-width="1.5" stroke-dasharray=""/></g><g transform="matrix(1,0,0,1,71.5,228)"><g transform="matrix(0.05,0,0,0.05,285,209)"><g transform="matrix(1,0,0,1,0,0)"><path fill="#000000" stroke="#000000" id="_54FE436D-953F-4B7B-8528-B05289A2DEE4_multipleInstanceIconParallel" paint-order="fill stroke markers" d=" M 0 0 M 92 44 L 92 468 C 92 474.6 86.6 480 80 480 L 48 480 C 41.4 480 36 474.6 36 468 L 36 44 C 36 37.4 41.4 32 48 32 L 80 32 C 86.6 32 92 37.4 92 44 Z M 0 0 M 252 44 L 252 468 C 252 474.6 246.6 480 240 480 L 208 480 C 201.4 480 196 474.6 196 468 L 196 44 C 196 37.4 201.4 32 208 32 L 240 32 C 246.6 32 252 37.4 252 44 Z M 0 0 M 412 44 L 412 468 C 412 474.6 406.6 480 400 480 L 368 480 C 361.4 480 356 474.6 356 468 L 356 44 C 356 37.4 361.4 32 368 32 L 400 32 C 406.6 32 412 37.4 412 44 Z" stroke-miterlimit="10" stroke-dasharray=""/></g><g transform="matrix(1,0,0,1,0,0)"><path fill="none" stroke="none"/></g></g></g><g transform="matrix(1,0,0,1,240.671875,0)"><text fill="#000000" stroke="none" font-family="Open Sans" font-size="12pt" font-style="normal" font-weight="normal" text-decoration="normal" x="127.828125" y="12" text-anchor="middle" dominant-baseline="alphabetic">Definir politica de comunicaciones</text></g><g id="_DA6AB3DC-8E67-4AF7-ACC6-0CED58A652EE" bpmn2nodeid="_DA6AB3DC-8E67-4AF7-ACC6-0CED58A652EE" transform="matrix(1,0,0,1,5,12)"><g><path fill="none" stroke="none"/></g><g transform="matrix(1,0,0,1,0,0)"><path fill="#f2f2f2" stroke="none" id="_DA6AB3DC-8E67-4AF7-ACC6-0CED58A652EE?shapeType=BACKGROUND" paint-order="stroke fill markers" d=" M 0 0 L 494 0 L 494 200 L 0 200 L 0 0 Z Z"/></g><g transform="matrix(1,0,0,1,0,0)"><path fill="none" stroke="rgb(0,0,0)" id="_DA6AB3DC-8E67-4AF7-ACC6-0CED58A652EE?shapeType=BORDER&amp;renderType=STROKE" paint-order="fill stroke markers" d=" M 0 0 L 494 0 L 494 200 L 0 200 L 0 0 Z Z" stroke-miterlimit="10" stroke-width="0.5" stroke-dasharray=""/></g><g transform="matrix(-1.8369701987210297e-16,-1,1,-1.8369701987210297e-16,0,160.0625)"><text fill="#000000" stroke="none" font-family="Open Sans" font-size="12pt" font-style="normal" font-weight="normal" text-decoration="normal" x="60.0625" y="12" text-anchor="middle" dominant-baseline="alphabetic">     Asesor de      </text><text fill="#000000" stroke="none" font-family="Open Sans" font-size="12pt" font-style="normal" font-weight="normal" text-decoration="normal" x="60.0625" y="27" text-anchor="middle" dominant-baseline="alphabetic">comunicaciones</text></g></g><g id="_A5BB70A6-64C3-4FD0-95E3-D979D4162E6D" bpmn2nodeid="_A5BB70A6-64C3-4FD0-95E3-D979D4162E6D" transform="matrix(1,0,0,1,6,213)"><g><path fill="none" stroke="none"/></g><g transform="matrix(1,0,0,1,0,0)"><path fill="#f2f2f2" stroke="none" id="_A5BB70A6-64C3-4FD0-95E3-D979D4162E6D?shapeType=BACKGROUND" paint-order="stroke fill markers" d=" M 0 0 L 493 0 L 493 200 L 0 200 L 0 0 Z Z"/></g><g transform="matrix(1,0,0,1,0,0)"><path fill="none" stroke="rgb(0,0,0)" id="_A5BB70A6-64C3-4FD0-95E3-D979D4162E6D?shapeType=BORDER&amp;renderType=STROKE" paint-order="fill stroke markers" d=" M 0 0 L 493 0 L 493 200 L 0 200 L 0 0 Z Z" stroke-miterlimit="10" stroke-width="0.5" stroke-dasharray=""/></g><g transform="matrix(-1.8369701987210297e-16,-1,1,-1.8369701987210297e-16,0,193.41796875)"><text fill="#000000" stroke="none" font-family="Open Sans" font-size="12pt" font-style="normal" font-weight="normal" text-decoration="normal" x="93.41796875" y="12" text-anchor="middle" dominant-baseline="alphabetic">Direccion de estrategia y </text><text fill="#000000" stroke="none" font-family="Open Sans" font-size="12pt" font-style="normal" font-weight="normal" text-decoration="normal" x="93.41796875" y="27" text-anchor="middle" dominant-baseline="alphabetic">             evaluacion             </text></g></g></g><g transform="matrix(1,0,0,1,75,17)"/><g transform="matrix(1,0,0,1,80,29)"/><g transform="matrix(1,0,0,1,81,230)"/></g></g></svg>