<svg version="1.1" xmlns="http://www.w3.org/2000/svg" xmlns:xlink="http://www.w3.org/1999/xlink" width="758" height="330" viewBox="0 0 758 330"><defs/><g transform="matrix(1,0,0,1,0,0)"><g><g><g><path fill="none" stroke="#d3d3d3" paint-order="fill stroke markers" d=" M 0 0 L 1200 0" stroke-miterlimit="10" stroke-opacity="0.8" stroke-dasharray="5"/></g><g><path fill="none" stroke="#d3d3d3" paint-order="fill stroke markers" d=" M 0 0 L 0 800" stroke-miterlimit="10" stroke-opacity="0.8" stroke-dasharray="5"/></g></g><g id="_54FE436D-953F-4B7B-8528-B05289A2DEE4" bpmn2nodeid="_54FE436D-953F-4B7B-8528-B05289A2DEE4" transform="matrix(1,0,0,1,55,27)"><g><path fill="none" stroke="none"/></g><g transform="matrix(1,0,0,1,0,0)"><path fill="#ffffff" stroke="none" id="_54FE436D-953F-4B7B-8528-B05289A2DEE4?shapeType=BACKGROUND" paint-order="stroke fill markers" d=" M 2 0 L 651 0 L 651 0 A 2 2 0 0 1 653 2 L 653 251 L 653 251 A 2 2 0 0 1 651 253 L 2 253 L 2 253 A 2 2 0 0 1 0 251 L 0 2 L 0 2.0000000000000004 A 2 2 0 0 1 1.9999999999999996 0 Z"/></g><g transform="matrix(1,0,0,1,0,0)"><path fill="none" stroke="rgb(0,136,206)" id="_54FE436D-953F-4B7B-8528-B05289A2DEE4?shapeType=BORDER&amp;renderType=STROKE" paint-order="fill stroke markers" d=" M 2 0 L 651 0 L 651 0 A 2 2 0 0 1 653 2 L 653 251 L 653 251 A 2 2 0 0 1 651 253 L 2 253 L 2 253 A 2 2 0 0 1 0 251 L 0 2 L 0 2.0000000000000004 A 2 2 0 0 1 1.9999999999999996 0 Z" stroke-miterlimit="10" stroke-width="1.5" stroke-dasharray=""/></g><g transform="matrix(1,0,0,1,198.671875,0)"><text fill="#000000" stroke="none" font-family="Open Sans" font-size="12pt" font-style="normal" font-weight="normal" text-decoration="normal" x="127.828125" y="12" text-anchor="middle" dominant-baseline="alphabetic">Definir politica de comunicaciones</text></g><g id="_DA6AB3DC-8E67-4AF7-ACC6-0CED58A652EE" bpmn2nodeid="_DA6AB3DC-8E67-4AF7-ACC6-0CED58A652EE" transform="matrix(1,0,0,1,5,19)"><g><path fill="none" stroke="none"/></g><g transform="matrix(1,0,0,1,0,0)"><path fill="#f2f2f2" stroke="none" id="_DA6AB3DC-8E67-4AF7-ACC6-0CED58A652EE?shapeType=BACKGROUND" paint-order="stroke fill markers" d=" M 0 0 L 494 0 L 494 200 L 0 200 L 0 0 Z Z"/></g><g transform="matrix(1,0,0,1,0,0)"><path fill="none" stroke="rgb(0,0,0)" id="_DA6AB3DC-8E67-4AF7-ACC6-0CED58A652EE?shapeType=BORDER&amp;renderType=STROKE" paint-order="fill stroke markers" d=" M 0 0 L 494 0 L 494 200 L 0 200 L 0 0 Z Z" stroke-miterlimit="10" stroke-width="0.5" stroke-dasharray=""/></g><g transform="matrix(-1.8369701987210297e-16,-1,1,-1.8369701987210297e-16,0,160.0625)"><text fill="#000000" stroke="none" font-family="Open Sans" font-size="12pt" font-style="normal" font-weight="normal" text-decoration="normal" x="60.0625" y="12" text-anchor="middle" dominant-baseline="alphabetic">     Asesor de      </text><text fill="#000000" stroke="none" font-family="Open Sans" font-size="12pt" font-style="normal" font-weight="normal" text-decoration="normal" x="60.0625" y="27" text-anchor="middle" dominant-baseline="alphabetic">comunicaciones</text></g></g></g><g transform="matrix(1,0,0,1,55,27)"/><g transform="matrix(1,0,0,1,60,46)"/></g></g></svg>