<svg version="1.1" xmlns="http://www.w3.org/2000/svg" xmlns:xlink="http://www.w3.org/1999/xlink" width="1030" height="320" viewBox="0 0 1030 320"><defs/><g transform="matrix(1,0,0,1,0,0)"><g><g><g><path fill="none" stroke="#d3d3d3" paint-order="fill stroke markers" d=" M 0 0 L 1200 0" stroke-miterlimit="10" stroke-opacity="0.8" stroke-dasharray="5"/></g><g><path fill="none" stroke="#d3d3d3" paint-order="fill stroke markers" d=" M 0 0 L 0 800" stroke-miterlimit="10" stroke-opacity="0.8" stroke-dasharray="5"/></g></g><g id="_6A5BC3A8-FBA7-41FA-9CD0-F955656268FB" bpmn2nodeid="_6A5BC3A8-FBA7-41FA-9CD0-F955656268FB" transform="matrix(1,0,0,1,100,23)"><g><path fill="none" stroke="none"/></g><g transform="matrix(1,0,0,1,0,0)"><path fill="#ffffff" stroke="none" id="_6A5BC3A8-FBA7-41FA-9CD0-F955656268FB?shapeType=BACKGROUND" paint-order="stroke fill markers" d=" M 2 0 L 878 0 L 878 0 A 2 2 0 0 1 880 2 L 880 245 L 880 245 A 2 2 0 0 1 878 247 L 2 247 L 2 247 A 2 2 0 0 1 0 245 L 0 2 L 0 2.0000000000000004 A 2 2 0 0 1 1.9999999999999996 0 Z"/></g><g transform="matrix(1,0,0,1,0,0)"><path fill="none" stroke="rgb(57,63,68)" id="_6A5BC3A8-FBA7-41FA-9CD0-F955656268FB?shapeType=BORDER&amp;renderType=STROKE" paint-order="fill stroke markers" d=" M 2 0 L 878 0 L 878 0 A 2 2 0 0 1 880 2 L 880 245 L 880 245 A 2 2 0 0 1 878 247 L 2 247 L 2 247 A 2 2 0 0 1 0 245 L 0 2 L 0 2.0000000000000004 A 2 2 0 0 1 1.9999999999999996 0 Z" stroke-miterlimit="10" stroke-width="1.5" stroke-dasharray=""/></g><g transform="matrix(1,0,0,1,311.01953125,0)"><text fill="#000000" stroke="none" font-family="Open Sans" font-size="12pt" font-style="normal" font-weight="normal" text-decoration="normal" x="128.98046875" y="12" text-anchor="middle" dominant-baseline="alphabetic">Definir Politica de Comunicaciones</text></g><g id="_62CEC3DB-29F8-439F-92E6-0FB5013D44AD" bpmn2nodeid="_62CEC3DB-29F8-439F-92E6-0FB5013D44AD" transform="matrix(1,0,0,1,23,62)"><g><path fill="none" stroke="none"/></g><g transform="matrix(0.125,0,0,0.125,0,0)"><g transform="matrix(1,0,0,1,0,0)"><path fill="#e8fae6" stroke="none" id="_62CEC3DB-29F8-439F-92E6-0FB5013D44AD?shapeType=BACKGROUND" paint-order="stroke fill markers" d=" M 0 0 M 444 224 C 444 263.9 434.2 300.8 414.4 334.5 C 394.7 368.2 368 394.9 334.4 414.5 C 300.79999999999995 434.1 263.9 444 224 444 C 184.10000000000002 444 147.2 434.2 113.5 414.4 C 79.8 394.7 53.1 368 33.5 334.4 C 13.899999999999999 300.79999999999995 4 263.9 4 224 C 4 184.10000000000002 13.8 147.2 33.6 113.5 C 53.400000000000006 79.80000000000001 80.1 53.1 113.6 33.5 C 147.1 13.899999999999999 184.1 4 224 4 C 263.9 4 300.8 13.8 334.5 33.6 C 368.2 53.400000000000006 394.9 80.1 414.5 113.6 C 434.1 147.1 444 184.1 444 224 Z"/></g><g><g transform="matrix(1,0,0,1,0,0)"><g transform="matrix(1,0,0,1,0,0)"><path fill="rgb(74,162,65)" stroke="none" id="_62CEC3DB-29F8-439F-92E6-0FB5013D44AD?shapeType=BORDER&amp;renderType=FILL" paint-order="stroke fill markers" d=" M 0 0 M 224 0 C 100.3 0 0 100.3 0 224 C 0 347.7 100.3 448 224 448 C 347.7 448 448 347.7 448 224 C 448 100.30000000000001 347.7 0 224 0 Z M 0 0 M 224 432 C 109.1 432 16 338.9 16 224 C 16 109.10000000000002 109.1 16 224 16 C 338.9 16 432 109.1 432 224 C 432 338.9 338.9 432 224 432 Z"/></g></g></g></g><g transform="matrix(1,0,0,1,28,61)"/></g><g id="_A954419D-F165-406A-8B6C-08590C0341B7" bpmn2nodeid="_A954419D-F165-406A-8B6C-08590C0341B7" transform="matrix(1,0,0,1,116,39)"><g><path fill="none" stroke="none"/></g><g transform="matrix(1,0,0,1,0,0)"><path fill="#ffffff" stroke="none" id="_A954419D-F165-406A-8B6C-08590C0341B7?shapeType=BACKGROUND" paint-order="stroke fill markers" d=" M 2 0 L 138 0 L 138 0 A 2 2 0 0 1 140 2 L 140 100 L 140 100 A 2 2 0 0 1 138 102 L 2 102 L 2 102 A 2 2 0 0 1 0 100 L 0 2 L 0 2.0000000000000004 A 2 2 0 0 1 1.9999999999999996 0 Z"/></g><g transform="matrix(1,0,0,1,0,0)"><path fill="none" stroke="rgb(255,0,0)" id="_A954419D-F165-406A-8B6C-08590C0341B7?shapeType=BORDER&amp;renderType=STROKE" paint-order="fill stroke markers" d=" M 2 0 L 138 0 L 138 0 A 2 2 0 0 1 140 2 L 140 100 L 140 100 A 2 2 0 0 1 138 102 L 2 102 L 2 102 A 2 2 0 0 1 0 100 L 0 2 L 0 2.0000000000000004 A 2 2 0 0 1 1.9999999999999996 0 Z" stroke-miterlimit="10" stroke-width="1.5" stroke-dasharray=""/></g><g transform="matrix(1,0,0,1,6.43359375,28.5)"><text fill="#000000" stroke="none" font-family="Open Sans" font-size="12pt" font-style="normal" font-weight="normal" text-decoration="normal" x="63.56640625" y="12" text-anchor="middle" dominant-baseline="alphabetic">100. Socializar la </text><text fill="#000000" stroke="none" font-family="Open Sans" font-size="12pt" font-style="normal" font-weight="normal" text-decoration="normal" x="63.56640625" y="27" text-anchor="middle" dominant-baseline="alphabetic">     politica de       </text><text fill="#000000" stroke="none" font-family="Open Sans" font-size="12pt" font-style="normal" font-weight="normal" text-decoration="normal" x="63.56640625" y="42" text-anchor="middle" dominant-baseline="alphabetic"> comunicaciones </text></g></g><g id="_EB4EE3F0-9E73-4119-89BE-2B1E9A8F2EFF" bpmn2nodeid="_EB4EE3F0-9E73-4119-89BE-2B1E9A8F2EFF" transform="matrix(1,0,0,1,309,39)"><g><path fill="none" stroke="none"/></g><g transform="matrix(1,0,0,1,0,0)"><path fill="#ffffff" stroke="none" id="_EB4EE3F0-9E73-4119-89BE-2B1E9A8F2EFF?shapeType=BACKGROUND" paint-order="stroke fill markers" d=" M 2 0 L 152 0 L 152 0 A 2 2 0 0 1 154 2 L 154 100 L 154 100 A 2 2 0 0 1 152 102 L 2 102 L 2 102 A 2 2 0 0 1 0 100 L 0 2 L 0 2.0000000000000004 A 2 2 0 0 1 1.9999999999999996 0 Z"/></g><g transform="matrix(1,0,0,1,0,0)"><path fill="none" stroke="rgb(0,0,0)" id="_EB4EE3F0-9E73-4119-89BE-2B1E9A8F2EFF?shapeType=BORDER&amp;renderType=STROKE" paint-order="fill stroke markers" d=" M 2 0 L 152 0 L 152 0 A 2 2 0 0 1 154 2 L 154 100 L 154 100 A 2 2 0 0 1 152 102 L 2 102 L 2 102 A 2 2 0 0 1 0 100 L 0 2 L 0 2.0000000000000004 A 2 2 0 0 1 1.9999999999999996 0 Z" stroke-miterlimit="10" stroke-width="1.5" stroke-dasharray=""/></g><g transform="matrix(1,0,0,1,16.9375,21)"><text fill="#000000" stroke="none" font-family="Open Sans" font-size="12pt" font-style="normal" font-weight="normal" text-decoration="normal" x="60.0625" y="12" text-anchor="middle" dominant-baseline="alphabetic">110. Identificar  </text><text fill="#000000" stroke="none" font-family="Open Sans" font-size="12pt" font-style="normal" font-weight="normal" text-decoration="normal" x="60.0625" y="27" text-anchor="middle" dominant-baseline="alphabetic">   mejoras a la    </text><text fill="#000000" stroke="none" font-family="Open Sans" font-size="12pt" font-style="normal" font-weight="normal" text-decoration="normal" x="60.0625" y="42" text-anchor="middle" dominant-baseline="alphabetic">    politica de      </text><text fill="#000000" stroke="none" font-family="Open Sans" font-size="12pt" font-style="normal" font-weight="normal" text-decoration="normal" x="60.0625" y="57" text-anchor="middle" dominant-baseline="alphabetic">comunicaciones</text></g></g><g id="_E582C2F8-F513-4280-98FA-6C31A8BCF7B6" bpmn2nodeid="_E582C2F8-F513-4280-98FA-6C31A8BCF7B6" transform="matrix(1,0,0,1,511,19)"><g><path fill="none" stroke="none"/></g><g transform="matrix(0.09070080886981349,0,0,0.08169934640522876,0,0)"><g transform="matrix(1,0,0,1,0,0)"><path fill="rgb(255,255,255)" stroke="rgb(0,0,0)" id="_E582C2F8-F513-4280-98FA-6C31A8BCF7B6?shapeType=BORDER&amp;renderType=STROKE" paint-order="fill stroke markers" d=" M 0 0 M 404.814 0 L 60.736 0 L 60.736 612 L 551.263 612 L 551.263 153 Z M 0 0 M 404.814 0 L 551.263 153 L 404.78839000000005 151.8588 Z" stroke-miterlimit="10" stroke-width="7" stroke-dasharray="0"/></g><g transform="matrix(1,0,0,1,0,0)"><path fill="#ffffff" stroke="none" id="_E582C2F8-F513-4280-98FA-6C31A8BCF7B6_dataObject__pwOi" paint-order="stroke fill markers" d=" M 0 0 M 407.78 5.025422 L 408.62229 150.15254 L 545.9156 151 Z"/></g></g><g transform="matrix(1,0,0,1,-16.83203125,55)"><text fill="#000000" stroke="none" font-family="Open Sans" font-size="12pt" font-style="normal" font-weight="normal" text-decoration="normal" x="41.83203125" y="12" text-anchor="middle" dominant-baseline="alphabetic">DataObject</text></g></g><g id="_99633990-AB39-4184-B126-40E22052D3D8" bpmn2nodeid="_99633990-AB39-4184-B126-40E22052D3D8" transform="matrix(1,0,0,1,587,39)"><g><path fill="none" stroke="none"/></g><g transform="matrix(1,0,0,1,0,0)"><path fill="#ffffff" stroke="none" id="_99633990-AB39-4184-B126-40E22052D3D8?shapeType=BACKGROUND" paint-order="stroke fill markers" d=" M 2 0 L 152 0 L 152 0 A 2 2 0 0 1 154 2 L 154 100 L 154 100 A 2 2 0 0 1 152 102 L 2 102 L 2 102 A 2 2 0 0 1 0 100 L 0 2 L 0 2.0000000000000004 A 2 2 0 0 1 1.9999999999999996 0 Z"/></g><g transform="matrix(1,0,0,1,0,0)"><path fill="none" stroke="rgb(0,0,0)" id="_99633990-AB39-4184-B126-40E22052D3D8?shapeType=BORDER&amp;renderType=STROKE" paint-order="fill stroke markers" d=" M 2 0 L 152 0 L 152 0 A 2 2 0 0 1 154 2 L 154 100 L 154 100 A 2 2 0 0 1 152 102 L 2 102 L 2 102 A 2 2 0 0 1 0 100 L 0 2 L 0 2.0000000000000004 A 2 2 0 0 1 1.9999999999999996 0 Z" stroke-miterlimit="10" stroke-width="1.5" stroke-dasharray=""/></g><g transform="matrix(1,0,0,1,8.40234375,36)"><text fill="#000000" stroke="none" font-family="Open Sans" font-size="12pt" font-style="normal" font-weight="normal" text-decoration="normal" x="68.59765625" y="12" text-anchor="middle" dominant-baseline="alphabetic"> 120. Realizar los   </text><text fill="#000000" stroke="none" font-family="Open Sans" font-size="12pt" font-style="normal" font-weight="normal" text-decoration="normal" x="68.59765625" y="27" text-anchor="middle" dominant-baseline="alphabetic">ajustes aprobados</text></g></g><g id="_4566B231-CE88-4215-B3C0-DCDD7BB86F73" bpmn2nodeid="_4566B231-CE88-4215-B3C0-DCDD7BB86F73" transform="matrix(1,0,0,1,790,62)"><g><path fill="none" stroke="none"/></g><g transform="matrix(0.125,0,0,0.125,0,0)"><g transform="matrix(1,0,0,1,0,0)"><path fill="#fce7e7" stroke="none" id="_4566B231-CE88-4215-B3C0-DCDD7BB86F73?shapeType=BACKGROUND" paint-order="stroke fill markers" d=" M 0 0 M 444 224 C 444 263.9 434.2 300.8 414.4 334.5 C 394.7 368.2 368 394.9 334.4 414.5 C 300.79999999999995 434.1 263.9 444 224 444 C 184.10000000000002 444 147.2 434.2 113.5 414.4 C 79.8 394.7 53.1 368 33.5 334.4 C 13.899999999999999 300.79999999999995 4 263.9 4 224 C 4 184.10000000000002 13.8 147.2 33.6 113.5 C 53.400000000000006 79.80000000000001 80.1 53.1 113.6 33.5 C 147.1 13.899999999999999 184.1 4 224 4 C 263.9 4 300.8 13.8 334.5 33.6 C 368.2 53.400000000000006 394.9 80.1 414.5 113.6 C 434.1 147.1 444 184.1 444 224 Z"/></g><g><g transform="matrix(1,0,0,1,0,0)"><g transform="matrix(1,0,0,1,0,0)"><path fill="rgb(163,0,0)" stroke="none" id="_4566B231-CE88-4215-B3C0-DCDD7BB86F73?shapeType=BORDER&amp;renderType=FILL" paint-order="stroke fill markers" d=" M 0 0 M 224 0 C 100.3 0 0 100.3 0 224 C 0 347.7 100.3 448 224 448 C 347.7 448 448 347.7 448 224 C 448 100.30000000000001 347.7 0 224 0 Z M 0 0 M 224 400 C 126.8 400 48 321.2 48 224 C 48 126.80000000000001 126.8 48 224 48 C 321.2 48 400 126.8 400 224 C 400 321.2 321.2 400 224 400 Z"/></g></g></g></g><g transform="matrix(1,0,0,1,28,61)"/></g></g><g id="_2110BD37-26B4-4D14-9A35-197EDE245EE1" bpmn2nodeid="_2110BD37-26B4-4D14-9A35-197EDE245EE1" transform="matrix(1,0,0,1,0,0)"><g><path fill="none" stroke="#000000" paint-order="fill stroke markers" d=" M 179 113 L 201 113" stroke-miterlimit="10" stroke-dasharray=""/></g><g transform="matrix(1,0,0,1,179,113)"/><g transform="matrix(6.123233995736766e-17,1,-1,6.123233995736766e-17,216,108)"><path fill="#000000" stroke="#000000" paint-order="fill stroke markers" d=" M 10 15 L 0 15 L 5 0 Z" stroke-miterlimit="10" stroke-dasharray=""/></g><g transform="matrix(1,0,0,1,179,103)"/></g><g transform="matrix(1,0,0,1,100,23)"/><g transform="matrix(1,0,0,1,123,85)"/><g transform="matrix(1,0,0,1,216,62)"/><g transform="matrix(1,0,0,1,409,62)"/><g transform="matrix(1,0,0,1,611,42)"/><g transform="matrix(1,0,0,1,890,85)"/><g transform="matrix(1,0,0,1,687,62)"/><g id="_2DA802EB-378D-47BF-AD99-F3FFE4B62112" bpmn2nodeid="_2DA802EB-378D-47BF-AD99-F3FFE4B62112"><g><path fill="none" stroke="rgb(0,136,206)" paint-order="fill stroke markers" d=" M 841 113 L 875 113" stroke-miterlimit="10" stroke-dasharray=""/></g><g transform="matrix(1,0,0,1,841,113)"/><g transform="matrix(6.123233995736766e-17,1,-1,6.123233995736766e-17,890,108)"><path fill="rgb(0,0,0)" stroke="rgb(0,136,206)" paint-order="fill stroke markers" d=" M 10 15 L 0 15 L 5 0 Z" stroke-miterlimit="10" stroke-dasharray=""/></g><g transform="matrix(1,0,0,1,841,81)"><text fill="#000000" stroke="none" font-family="Open Sans" font-size="10pt" font-style="normal" font-weight="normal" text-decoration="normal" x="0" y="8.8" text-anchor="start" dominant-baseline="alphabetic">Fin de   </text><text fill="#000000" stroke="none" font-family="Open Sans" font-size="10pt" font-style="normal" font-weight="normal" text-decoration="normal" x="0" y="19.8" text-anchor="start" dominant-baseline="alphabetic">evento  </text></g></g></g></g></svg>