<svg version="1.1" xmlns="http://www.w3.org/2000/svg" xmlns:xlink="http://www.w3.org/1999/xlink" width="776" height="324" viewBox="0 0 776 324"><defs/><g transform="matrix(1,0,0,1,0,0)"><g><g><g><path fill="none" stroke="#d3d3d3" paint-order="fill stroke markers" d=" M 0 0 L 1200 0" stroke-miterlimit="10" stroke-opacity="0.8" stroke-dasharray="5"/></g><g><path fill="none" stroke="#d3d3d3" paint-order="fill stroke markers" d=" M 0 0 L 0 800" stroke-miterlimit="10" stroke-opacity="0.8" stroke-dasharray="5"/></g></g><g id="_6A5BC3A8-FBA7-41FA-9CD0-F955656268FB" bpmn2nodeid="_6A5BC3A8-FBA7-41FA-9CD0-F955656268FB" transform="matrix(1,0,0,1,73,21)"><g><path fill="none" stroke="none"/></g><g transform="matrix(1,0,0,1,0,0)"><path fill="#ffffff" stroke="none" id="_6A5BC3A8-FBA7-41FA-9CD0-F955656268FB?shapeType=BACKGROUND" paint-order="stroke fill markers" d=" M 2 0 L 651 0 L 651 0 A 2 2 0 0 1 653 2 L 653 251 L 653 251 A 2 2 0 0 1 651 253 L 2 253 L 2 253 A 2 2 0 0 1 0 251 L 0 2 L 0 2.0000000000000004 A 2 2 0 0 1 1.9999999999999996 0 Z"/></g><g transform="matrix(1,0,0,1,0,0)"><path fill="none" stroke="rgb(57,63,68)" id="_6A5BC3A8-FBA7-41FA-9CD0-F955656268FB?shapeType=BORDER&amp;renderType=STROKE" paint-order="fill stroke markers" d=" M 2 0 L 651 0 L 651 0 A 2 2 0 0 1 653 2 L 653 251 L 653 251 A 2 2 0 0 1 651 253 L 2 253 L 2 253 A 2 2 0 0 1 0 251 L 0 2 L 0 2.0000000000000004 A 2 2 0 0 1 1.9999999999999996 0 Z" stroke-miterlimit="10" stroke-width="1.5" stroke-dasharray=""/></g><g transform="matrix(1,0,0,1,197.51953125,0)"><text fill="#000000" stroke="none" font-family="Open Sans" font-size="12pt" font-style="normal" font-weight="normal" text-decoration="normal" x="128.98046875" y="12" text-anchor="middle" dominant-baseline="alphabetic">Definir Politica de Comunicaciones</text></g><g id="_62CEC3DB-29F8-439F-92E6-0FB5013D44AD" bpmn2nodeid="_62CEC3DB-29F8-439F-92E6-0FB5013D44AD" transform="matrix(1,0,0,1,24,59)"><g><path fill="none" stroke="none"/></g><g transform="matrix(0.125,0,0,0.125,0,0)"><g transform="matrix(1,0,0,1,0,0)"><path fill="#e8fae6" stroke="none" id="_62CEC3DB-29F8-439F-92E6-0FB5013D44AD?shapeType=BACKGROUND" paint-order="stroke fill markers" d=" M 0 0 M 444 224 C 444 263.9 434.2 300.8 414.4 334.5 C 394.7 368.2 368 394.9 334.4 414.5 C 300.79999999999995 434.1 263.9 444 224 444 C 184.10000000000002 444 147.2 434.2 113.5 414.4 C 79.8 394.7 53.1 368 33.5 334.4 C 13.899999999999999 300.79999999999995 4 263.9 4 224 C 4 184.10000000000002 13.8 147.2 33.6 113.5 C 53.400000000000006 79.80000000000001 80.1 53.1 113.6 33.5 C 147.1 13.899999999999999 184.1 4 224 4 C 263.9 4 300.8 13.8 334.5 33.6 C 368.2 53.400000000000006 394.9 80.1 414.5 113.6 C 434.1 147.1 444 184.1 444 224 Z"/></g><g><g transform="matrix(1,0,0,1,0,0)"><g transform="matrix(1,0,0,1,0,0)"><path fill="rgb(74,162,65)" stroke="none" id="_62CEC3DB-29F8-439F-92E6-0FB5013D44AD?shapeType=BORDER&amp;renderType=FILL" paint-order="stroke fill markers" d=" M 0 0 M 224 0 C 100.3 0 0 100.3 0 224 C 0 347.7 100.3 448 224 448 C 347.7 448 448 347.7 448 224 C 448 100.30000000000001 347.7 0 224 0 Z M 0 0 M 224 432 C 109.1 432 16 338.9 16 224 C 16 109.10000000000002 109.1 16 224 16 C 338.9 16 432 109.1 432 224 C 432 338.9 338.9 432 224 432 Z"/></g></g></g></g><g transform="matrix(1,0,0,1,28,61)"/></g><g id="_A954419D-F165-406A-8B6C-08590C0341B7" bpmn2nodeid="_A954419D-F165-406A-8B6C-08590C0341B7" transform="matrix(1,0,0,1,124,36)"><g><path fill="none" stroke="none"/></g><g transform="matrix(1,0,0,1,0,0)"><path fill="#ffffff" stroke="none" id="_A954419D-F165-406A-8B6C-08590C0341B7?shapeType=BACKGROUND" paint-order="stroke fill markers" d=" M 2 0 L 102 0 L 102 0 A 2 2 0 0 1 104 2 L 104 101 L 104 101 A 2 2 0 0 1 102 103 L 2 103 L 2 103 A 2 2 0 0 1 0 101 L 0 2 L 0 2.0000000000000004 A 2 2 0 0 1 1.9999999999999996 0 Z"/></g><g transform="matrix(1,0,0,1,0,0)"><path fill="none" stroke="rgb(255,0,0)" id="_A954419D-F165-406A-8B6C-08590C0341B7?shapeType=BORDER&amp;renderType=STROKE" paint-order="fill stroke markers" d=" M 2 0 L 102 0 L 102 0 A 2 2 0 0 1 104 2 L 104 101 L 104 101 A 2 2 0 0 1 102 103 L 2 103 L 2 103 A 2 2 0 0 1 0 101 L 0 2 L 0 2.0000000000000004 A 2 2 0 0 1 1.9999999999999996 0 Z" stroke-miterlimit="10" stroke-width="1.5" stroke-dasharray=""/></g><g transform="matrix(1,0,0,1,2.92578125,14)"><text fill="#000000" stroke="none" font-family="Open Sans" font-size="12pt" font-style="normal" font-weight="normal" text-decoration="normal" x="49.07421875" y="12" text-anchor="middle" dominant-baseline="alphabetic">       100.         </text><text fill="#000000" stroke="none" font-family="Open Sans" font-size="12pt" font-style="normal" font-weight="normal" text-decoration="normal" x="49.07421875" y="27" text-anchor="middle" dominant-baseline="alphabetic"> Socializar la  </text><text fill="#000000" stroke="none" font-family="Open Sans" font-size="12pt" font-style="normal" font-weight="normal" text-decoration="normal" x="49.07421875" y="42" text-anchor="middle" dominant-baseline="alphabetic">politica de co</text><text fill="#000000" stroke="none" font-family="Open Sans" font-size="12pt" font-style="normal" font-weight="normal" text-decoration="normal" x="49.07421875" y="57" text-anchor="middle" dominant-baseline="alphabetic">umunicacion </text><text fill="#000000" stroke="none" font-family="Open Sans" font-size="12pt" font-style="normal" font-weight="normal" text-decoration="normal" x="49.07421875" y="72" text-anchor="middle" dominant-baseline="alphabetic">          es          </text></g></g></g><g transform="matrix(1,0,0,1,73,21)"/><g transform="matrix(1,0,0,1,97,80)"/><g id="_2110BD37-26B4-4D14-9A35-197EDE245EE1" bpmn2nodeid="_2110BD37-26B4-4D14-9A35-197EDE245EE1"><g><path fill="none" stroke="#000000" paint-order="fill stroke markers" d=" M 153 108 L 182.00096839794801 108.32955645906759" stroke-miterlimit="10" stroke-dasharray=""/></g><g transform="matrix(1,0,0,1,153,108)"/><g transform="matrix(-0.011362902728827253,0.9999354401367997,-0.9999354401367997,-0.011362902728827253,197.05681451364413,103.500322799316)"><path fill="#000000" stroke="#000000" paint-order="fill stroke markers" d=" M 10 15 L 0 15 L 5 0 Z" stroke-miterlimit="10" stroke-dasharray=""/></g><g transform="matrix(1,0,0,1,153.11362902728828,98.250645598632)"/></g><g transform="matrix(1,0,0,1,197,57)"/></g></g></svg>